<svg width="36" height="36" viewBox="0 0 36 36" fill="none" xmlns="http://www.w3.org/2000/svg">
<path fill-rule="evenodd" clip-rule="evenodd" d="M13.492 11.9012C13.0527 11.4619 12.3404 11.4619 11.901 11.9012C11.4617 12.3405 11.4617 13.0529 11.901 13.4922L16.4088 18L11.901 22.5078C11.4617 22.9471 11.4617 23.6595 11.901 24.0988C12.3404 24.5381 13.0527 24.5381 13.492 24.0988L17.9998 19.591L22.5076 24.0988C22.947 24.5381 23.6593 24.5381 24.0986 24.0988C24.538 23.6595 24.538 22.9471 24.0986 22.5078L19.5908 18L24.0986 13.4922C24.538 13.0529 24.538 12.3405 24.0986 11.9012C23.6593 11.4619 22.947 11.4619 22.5076 11.9012L17.9998 16.409L13.492 11.9012Z" fill="#C0C0C0"/>
</svg>
