<svg width="24" height="24" viewBox="0 0 24 24" fill="none" xmlns="http://www.w3.org/2000/svg">
<path fill-rule="evenodd" clip-rule="evenodd" d="M8.99469 7.93414C8.70179 7.64124 8.22692 7.64124 7.93403 7.93414C7.64113 8.22703 7.64113 8.7019 7.93403 8.9948L10.9392 12L7.93403 15.0052C7.64113 15.2981 7.64113 15.773 7.93403 16.0659C8.22692 16.3588 8.70179 16.3588 8.99469 16.0659L11.9999 13.0607L15.0051 16.0659C15.298 16.3588 15.7729 16.3588 16.0658 16.0659C16.3586 15.773 16.3586 15.2981 16.0658 15.0052L13.0606 12L16.0658 8.9948C16.3586 8.7019 16.3586 8.22703 16.0658 7.93414C15.7729 7.64124 15.298 7.64124 15.0051 7.93414L11.9999 10.9393L8.99469 7.93414Z" fill="black"/>
</svg>
