<svg width="24" height="24" viewBox="0 0 24 24" fill="none" xmlns="http://www.w3.org/2000/svg">
<path fill-rule="evenodd" clip-rule="evenodd" d="M12 17.8C15.2033 17.8 17.8 15.2033 17.8 12C17.8 8.79675 15.2033 6.2 12 6.2C8.79675 6.2 6.2 8.79675 6.2 12C6.2 15.2033 8.79675 17.8 12 17.8ZM12 19C15.866 19 19 15.866 19 12C19 8.13401 15.866 5 12 5C8.13401 5 5 8.13401 5 12C5 15.866 8.13401 19 12 19ZM12 10.4C12.3314 10.4 12.6 10.6686 12.6 11V15.5C12.6 15.8314 12.3314 16.1 12 16.1C11.6687 16.1 11.4 15.8314 11.4 15.5V11C11.4 10.6686 11.6687 10.4 12 10.4ZM12 9.5C12.4142 9.5 12.75 9.16421 12.75 8.75C12.75 8.33579 12.4142 8 12 8C11.5858 8 11.25 8.33579 11.25 8.75C11.25 9.16421 11.5858 9.5 12 9.5Z" fill="black"/>
</svg>
