<svg width="24" height="24" viewBox="0 0 24 24" fill="none" xmlns="http://www.w3.org/2000/svg">
<path fill-rule="evenodd" clip-rule="evenodd" d="M13.5013 7.7859C15.0796 9.36417 15.0796 11.923 13.5013 13.5013C11.923 15.0796 9.36417 15.0796 7.7859 13.5013C6.20763 11.923 6.20763 9.36417 7.7859 7.7859C9.36417 6.20763 11.923 6.20763 13.5013 7.7859ZM14.6489 13.8714C16.2808 11.8515 16.1581 8.8839 14.2807 7.00653C12.272 4.99782 9.01523 4.99782 7.00653 7.00653C4.99782 9.01523 4.99782 12.272 7.00653 14.2807C8.88383 16.158 11.8512 16.2808 13.8711 14.6491L17.3368 18.1148C17.5516 18.3296 17.8998 18.3296 18.1146 18.1148C18.3294 17.9 18.3294 17.5518 18.1146 17.3371L14.6489 13.8714Z" fill="black"/>
</svg>
